<svg width="30" height="32" viewBox="0 0 30 32" fill="none" xmlns="http://www.w3.org/2000/svg">
<path d="M28.4211 13.104H23.8579C20.1158 13.104 17.0684 10.016 17.0684 6.224V1.6C17.0684 0.72 16.3579 0 15.4895 0H8.79474C3.93158 0 0 3.2 0 8.912V23.088C0 28.8 3.93158 32 8.79474 32H21.2053C26.0684 32 30 28.8 30 23.088V14.704C30 13.824 29.2895 13.104 28.4211 13.104Z" fill="#227CD0"/>
<path d="M20.9993 0.33594C20.3519 -0.32006 19.2309 0.12794 19.2309 1.03994V6.62394C19.2309 8.95994 21.1888 10.8959 23.573 10.8959C25.073 10.9119 27.1572 10.9119 28.9414 10.9119C29.8414 10.9119 30.3151 9.83994 29.6835 9.19994C27.4098 6.87994 23.3362 2.70394 20.9993 0.33594Z" fill="#FF9D00"/>
<path d="M17.3682 18.8H7.89454C7.24717 18.8 6.71033 18.256 6.71033 17.6C6.71033 16.944 7.24717 16.4 7.89454 16.4H17.3682C18.0156 16.4 18.5524 16.944 18.5524 17.6C18.5524 18.256 18.0156 18.8 17.3682 18.8Z" fill="white"/>
<path d="M14.2103 25.2H7.89454C7.24717 25.2 6.71033 24.656 6.71033 24C6.71033 23.344 7.24717 22.8 7.89454 22.8H14.2103C14.8577 22.8 15.3945 23.344 15.3945 24C15.3945 24.656 14.8577 25.2 14.2103 25.2Z" fill="white"/>
</svg>
