<svg width="22" height="22" viewBox="0 0 22 22" fill="none" xmlns="http://www.w3.org/2000/svg">
<path fill-rule="evenodd" clip-rule="evenodd" d="M18.7955 3.1973C16.7269 1.13652 13.9766 0.000859375 11.0466 0C5.00887 0 0.0945559 4.88941 0.0919653 10.9012C0.0911018 12.8223 0.595831 14.6979 1.55477 16.3513L0 22L5.80633 20.4836C7.40644 21.3529 9.20819 21.8101 11.041 21.8114H11.0458C17.0822 21.8114 21.9974 16.9207 22 10.9093C22.0022 7.99691 20.8636 5.25723 18.7955 3.1973ZM11.0466 19.9697H11.0427C9.40896 19.9697 7.80712 19.5323 6.40864 18.7064L6.07619 18.5101L2.63029 19.4094L3.55081 16.0656L3.33407 15.7227C2.42218 14.2798 1.94163 12.6126 1.9425 10.9012C1.94422 5.9052 6.02912 1.84078 11.0509 1.84078C13.4826 1.84078 15.7688 2.7848 17.4877 4.49711C19.2065 6.21027 20.1525 8.48633 20.1516 10.9076C20.1486 15.9049 16.0646 19.9697 11.0466 19.9697Z" fill="#227CD0"/>
<path fill-rule="evenodd" clip-rule="evenodd" d="M16.0408 13.1837C15.7671 13.047 14.4217 12.3879 14.17 12.2972C13.9196 12.2066 13.7369 12.1606 13.5539 12.433C13.3708 12.7054 12.8475 13.3195 12.6873 13.5016C12.528 13.683 12.3678 13.7062 12.0941 13.5695C11.8203 13.4329 10.9382 13.1459 9.89252 12.2173C9.07908 11.495 8.52945 10.603 8.37013 10.3297C8.21081 10.0564 8.35372 9.90988 8.48973 9.7741C8.61321 9.65207 8.76346 9.45613 8.90033 9.29672C9.0385 9.13903 9.08383 9.02559 9.1758 8.84297C9.2669 8.66164 9.222 8.5018 9.15291 8.36559C9.08383 8.22981 8.53679 6.88875 8.30925 6.34348C8.08733 5.81196 7.86151 5.88414 7.69313 5.87598C7.53381 5.86781 7.3516 5.86695 7.1681 5.86695C6.98461 5.86695 6.68928 5.93485 6.43843 6.20813C6.188 6.48141 5.48035 7.14055 5.48035 8.48074C5.48035 9.82094 6.46131 11.1169 6.59775 11.2986C6.73418 11.4804 8.52729 14.2321 11.2733 15.4116C11.9266 15.6922 12.4365 15.8598 12.8337 15.9852C13.4895 16.1923 14.0862 16.1631 14.5581 16.0935C15.084 16.0157 16.1772 15.4344 16.4057 14.7984C16.6341 14.1625 16.6341 13.6159 16.565 13.5034C16.4968 13.3886 16.3145 13.3207 16.0408 13.1845V13.1837Z" fill="#FF9D00"/>
</svg>
