<svg width="27" height="24" viewBox="0 0 27 24" fill="none" xmlns="http://www.w3.org/2000/svg">
<path d="M19.0556 6.5H24.6111C25.375 6.5 26 7.11875 26 7.875V23L21.375 19.1912C21.125 18.985 20.8056 18.875 20.4861 18.875H9.33335C8.56946 18.875 7.94446 18.2563 7.94446 17.5V13.375" stroke="#FF9D00" stroke-width="2" stroke-linecap="round" stroke-linejoin="round"/>
<path d="M19.0556 6.5V2.375C19.0556 1.61875 18.4306 1 17.6667 1H2.38889C1.625 1 1 1.61875 1 2.375V17.5L5.625 13.6912C5.875 13.485 6.19444 13.375 6.51389 13.375H7.94444" stroke="#227CD0" stroke-width="2" stroke-linecap="round" stroke-linejoin="round"/>
<path d="M19.0556 6.5V12C19.0556 12.7563 18.4306 13.375 17.6667 13.375H7.94446" stroke="#227CD0" stroke-width="2" stroke-linecap="round" stroke-linejoin="round"/>
</svg>
