<svg width="22" height="22" viewBox="0 0 22 22" fill="none" xmlns="http://www.w3.org/2000/svg">
<path d="M8.04887 4.80378L6.18582 1.63298C5.82167 1.01323 5.03147 0.80149 4.44026 1.21034C3.27702 2.01477 1.54334 3.42601 1.11206 4.93485C0.44257 7.27704 2.85598 12.855 6.13719 16.1362C9.41848 19.4176 14.7119 21.5462 17.0542 20.877C18.5629 20.4459 19.9745 18.7129 20.7792 17.5499C21.1883 16.9587 20.9766 16.1683 20.3568 15.8041L17.1859 13.941C16.5844 13.5875 15.8118 13.7621 15.4206 14.3397L14.5489 15.627C14.1716 16.1841 13.4392 16.3628 12.8756 15.9953C11.9679 15.4034 10.5549 14.3777 9.08312 12.9059C7.61148 11.4343 6.58585 10.0215 5.99393 9.11378C5.62634 8.55003 5.80528 7.81746 6.36267 7.44029L7.64972 6.56939C8.22769 6.17829 8.4024 5.40546 8.04887 4.80378Z" stroke="#227CD0" stroke-width="1.5"/>
</svg>
